<svg width="512" height="512" viewBox="0 0 512 512" fill="none" xmlns="http://www.w3.org/2000/svg">
<rect width="512" height="512" rx="100" fill="#2563EB"/>
<path d="M196 410V340C196 240 246 130 336 130C376 130 406 160 406 200C406 230 396 250 366 270C356 275 356 290 366 295C376 300 376 315 366 320C346 330 326 320 326 350C326 380 306 400 266 410" stroke="white" stroke-width="24" stroke-linecap="round" stroke-linejoin="round"/>
<path d="M420 280C420 280 440 290 440 305C440 315 430 320 420 320C410 320 400 315 400 305C400 290 420 280 420 280Z" fill="white"/>
<path d="M450 330C450 330 470 340 470 355C470 365 460 370 450 370C440 370 430 365 430 355C430 340 450 330 450 330Z" fill="white"/>
<path d="M410 350C410 350 430 360 430 375C430 385 420 390 410 390C390 390 380 385 380 375C390 360 410 350 410 350Z" fill="white"/>
</svg>