<?xml version="1.0" standalone="no"?>
<svg version="1.0" xmlns="http://www.w3.org/2000/svg" viewBox="0 0 616.000000 544.000000" preserveAspectRatio="xMidYMid meet">
<g transform="translate(0.000000,544.000000) scale(0.100000,-0.100000)" fill="rgb(64,64,128)" stroke="rgb(64,64,128)" fill-opacity="0.10" stroke-opacity="0.10" stroke-width="0px">
    <path d="M4393 3060 c0 -41 2 -58 4 -37 2 20 2 54 0 75 -2 20 -4 3 -4 -38z"></path>
    <path d="M2898 1473 c7 -3 16 -2 19 1 4 3 -2 6 -13 5 -11 0 -14 -3 -6 -6z"></path>
    <path d="M2268 1463 c6 -2 18 -2 25 0 6 3 1 5 -13 5 -14 0 -19 -2 -12 -5z"></path>
    <path d="M2373 1463 c9 -2 23 -2 30 0 6 3 -1 5 -18 5 -16 0 -22 -2 -12 -5z"></path>
</g>
<g transform="translate(0.000000,544.000000) scale(0.100000,-0.100000)" fill="rgb(0,64,128)" stroke="rgb(0,64,128)" fill-opacity="0.10" stroke-opacity="0.10" stroke-width="0px">
    <path d="M4402 2210 c0 -14 2 -19 5 -12 2 6 2 18 0 25 -3 6 -5 1 -5 -13z"></path>
</g>
<g transform="translate(0.000000,544.000000) scale(0.100000,-0.100000)" fill="rgb(0,64,128)" stroke="rgb(0,64,128)" fill-opacity="0.20" stroke-opacity="0.20" stroke-width="0px">
    <path d="M2737 4003 c105 -2 281 -2 390 0 109 1 23 2 -192 2 -214 0 -304 -1 -198 -2z"></path>
    <path d="M4381 3504 c0 -11 3 -14 6 -6 3 7 2 16 -1 19 -3 4 -6 -2 -5 -13z"></path>
    <path d="M4403 2140 c0 -30 2 -43 4 -27 2 15 2 39 0 55 -2 15 -4 2 -4 -28z"></path>
    <path d="M2828 1473 c12 -2 32 -2 45 0 12 2 2 4 -23 4 -25 0 -35 -2 -22 -4z"></path>
</g>
<g transform="translate(0.000000,544.000000) scale(0.100000,-0.100000)" fill="rgb(0,64,128)" stroke="rgb(0,64,128)" fill-opacity="0.30" stroke-opacity="0.30" stroke-width="0px">
    <path d="M2313 4003 c9 -2 25 -2 35 0 9 3 1 5 -18 5 -19 0 -27 -2 -17 -5z"></path>
    <path d="M2488 4003 c12 -2 32 -2 45 0 12 2 2 4 -23 4 -25 0 -35 -2 -22 -4z"></path>
    <path d="M3363 4003 c26 -2 67 -2 90 0 23 2 2 3 -48 3 -49 0 -68 -1 -42 -3z"></path>
    <path d="M4402 2065 c0 -16 2 -22 5 -12 2 9 2 23 0 30 -3 6 -5 -1 -5 -18z"></path>
    <path d="M3713 1483 c31 -2 83 -2 115 0 31 2 5 3 -58 3 -63 0 -89 -1 -57 -3z"></path>
    <path d="M2758 1473 c12 -2 30 -2 40 0 9 3 -1 5 -23 4 -22 0 -30 -2 -17 -4z"></path>
</g>
<g transform="translate(0.000000,544.000000) scale(0.100000,-0.100000)" fill="rgb(0,64,128)" stroke="rgb(0,64,128)" fill-opacity="0.40" stroke-opacity="0.40" stroke-width="0px">
    <path d="M2403 4003 c15 -2 37 -2 50 0 12 2 0 4 -28 4 -27 0 -38 -2 -22 -4z"></path>
    <path d="M3503 4003 c9 -2 23 -2 30 0 6 3 -1 5 -18 5 -16 0 -22 -2 -12 -5z"></path>
    <path d="M3613 1483 c9 -2 25 -2 35 0 9 3 1 5 -18 5 -19 0 -27 -2 -17 -5z"></path>
    <path d="M2703 1473 c9 -2 23 -2 30 0 6 3 -1 5 -18 5 -16 0 -22 -2 -12 -5z"></path>
</g>
<g transform="translate(0.000000,544.000000) scale(0.100000,-0.100000)" fill="rgb(64,64,128)" stroke="rgb(64,64,128)" fill-opacity="0.40" stroke-opacity="0.40" stroke-width="0px">
    <path d="M1924 3848 l-19 -23 23 19 c21 18 27 26 19 26 -2 0 -12 -10 -23 -22z"></path>
    <path d="M4382 3425 c0 -16 2 -22 5 -12 2 9 2 23 0 30 -3 6 -5 -1 -5 -18z"></path>
    <path d="M4393 2865 c0 -22 2 -30 4 -17 2 12 2 30 0 40 -3 9 -5 -1 -4 -23z"></path>
    <path d="M3488 1483 c17 -2 47 -2 65 0 17 2 3 4 -33 4 -36 0 -50 -2 -32 -4z"></path>
</g>
<g transform="translate(0.000000,544.000000) scale(0.100000,-0.100000)" fill="rgb(64,64,128)" stroke="rgb(64,64,128)" fill-opacity="0.50" stroke-opacity="0.50" stroke-width="0px">
    <path d="M3568 4003 c7 -3 16 -2 19 1 4 3 -2 6 -13 5 -11 0 -14 -3 -6 -6z"></path>
    <path d="M4382 3370 c0 -19 2 -27 5 -17 2 9 2 25 0 35 -3 9 -5 1 -5 -18z"></path>
    <path d="M4392 2810 c0 -14 2 -19 5 -12 2 6 2 18 0 25 -3 6 -5 1 -5 -13z"></path>
    <path d="M3318 1483 c29 -2 74 -2 100 0 26 2 2 3 -53 3 -55 0 -76 -1 -47 -3z"></path>
</g>
<g transform="translate(0.000000,544.000000) scale(0.100000,-0.100000)" fill="rgb(64,64,128)" stroke="rgb(64,64,128)" fill-opacity="0.60" stroke-opacity="0.60" stroke-width="0px">
    <path d="M4382 3320 c0 -14 2 -19 5 -12 2 6 2 18 0 25 -3 6 -5 1 -5 -13z"></path>
    <path d="M3233 1483 c9 -2 23 -2 30 0 6 3 -1 5 -18 5 -16 0 -22 -2 -12 -5z"></path>
</g>
<g transform="translate(0.000000,544.000000) scale(0.100000,-0.100000)" fill="rgb(0,64,128)" stroke="rgb(0,64,128)" fill-opacity="0.60" stroke-opacity="0.60" stroke-width="0px">
    <path d="M3628 4003 c7 -3 16 -2 19 1 4 3 -2 6 -13 5 -11 0 -14 -3 -6 -6z"></path>
    <path d="M4393 2740 c0 -25 2 -35 4 -22 2 12 2 32 0 45 -2 12 -4 2 -4 -23z"></path>
    <path d="M2548 1473 c6 -2 18 -2 25 0 6 3 1 5 -13 5 -14 0 -19 -2 -12 -5z"></path>
</g>
<g transform="translate(0.000000,544.000000) scale(0.100000,-0.100000)" fill="rgb(64,64,128)" stroke="rgb(64,64,128)" fill-opacity="0.70" stroke-opacity="0.70" stroke-width="0px">
    <path d="M4382 3210 c0 -19 2 -27 5 -17 2 9 2 25 0 35 -3 9 -5 1 -5 -18z"></path>
</g>
<g transform="translate(0.000000,544.000000) scale(0.100000,-0.100000)" fill="rgb(0,64,191)" stroke="rgb(0,64,191)" stroke-width="0px">
    <path d="M2945 4000 c-741 -6 -788 -9 -849 -42 -11 -7 -23 -12 -26 -13 -15 -1 -79 -48 -84 -61 -3 -8 -10 -13 -15 -10 -18 11 -126 -127 -133 -169 -2 -11 -6 -23 -11 -26 -4 -3 -14 -37 -22 -75 -22 -106 -22 -1585 1 -1704 8 -46 23 -94 32 -108 9 -15 16 -28 14 -29 -5 -6 41 -93 49 -93 4 0 16 -16 28 -35 11 -20 29 -38 38 -42 10 -4 31 -19 47 -35 17 -15 53 -37 81 -47 97 -37 166 -44 343 -38 92 4 455 9 807 13 727 7 746 8 865 67 96 48 238 197 243 256 1 11 4 21 8 21 3 0 14 30 23 68 13 53 16 120 16 323 0 437 -12 919 -23 912 -6 -3 -7 -1 -3 6 9 15 8 390 -2 405 -3 6 -7 22 -8 36 -3 33 -8 52 -18 68 -4 7 -5 16 -2 19 8 8 -52 116 -71 126 -7 5 -11 12 -8 16 11 19 -167 157 -186 145 -5 -3 -9 -1 -9 4 0 5 -28 17 -62 27 -80 23 -139 23 -1063 15z m15 -340 c84 -14 211 -55 275 -88 27 -15 80 -57 117 -93 38 -36 70 -63 73 -61 5 5 9 -15 6 -30 0 -5 3 -8 9 -8 6 0 9 -3 8 -7 -1 -5 9 -28 22 -53 13 -25 25 -48 26 -52 1 -5 3 -11 4 -15 1 -5 2 -12 1 -17 -1 -4 2 -13 7 -20 5 -6 9 -21 10 -34 1 -21 13 -92 28 -159 2 -12 14 -32 27 -44 12 -12 15 -18 7 -14 -8 4 0 -8 19 -28 19 -20 38 -34 42 -31 4 2 14 -5 23 -17 8 -12 28 -29 44 -39 30 -19 62 -74 62 -109 0 -11 -7 -38 -16 -59 -13 -29 -29 -44 -75 -67 -64 -32 -69 -44 -45 -100 11 -26 11 -35 -5 -67 -11 -21 -28 -42 -38 -48 -15 -8 -21 -34 -11 -47 2 -2 3 -6 4 -10 1 -5 4 -12 7 -18 7 -10 5 -133 -2 -170 -6 -32 -58 -83 -112 -110 -45 -22 -64 -25 -155 -25 -66 0 -101 -4 -97 -10 3 -5 3 -10 -2 -10 -4 0 -7 -28 -6 -62 1 -69 -9 -92 -49 -109 -39 -16 -75 8 -84 57 -9 49 2 148 21 189 24 49 64 64 190 68 61 2 122 10 136 17 34 16 48 62 35 115 -11 46 -28 66 -73 89 -28 14 -53 42 -53 60 0 3 10 16 23 29 16 17 35 24 72 26 28 1 54 6 58 10 5 5 1 36 -8 69 -25 99 -14 119 86 148 41 12 49 19 49 39 0 14 -8 29 -21 35 -33 18 -133 112 -148 140 -26 48 -49 120 -44 139 6 25 -25 147 -50 196 -12 22 -20 43 -19 47 2 10 -125 138 -137 138 -6 0 -11 5 -11 10 0 6 -3 9 -7 8 -5 -1 -31 10 -60 25 -28 15 -67 29 -85 32 -169 27 -210 28 -389 12 -61 -6 -219 -62 -219 -78 0 -6 -4 -8 -9 -5 -14 9 -106 -70 -144 -122 -65 -89 -71 -105 -90 -264 -8 -69 -8 -93 3 -112 7 -14 10 -32 6 -42 -3 -9 -1 -23 5 -30 6 -8 8 -21 5 -30 -3 -9 -3 -21 1 -27 4 -7 9 -20 10 -30 5 -29 52 -117 64 -117 5 0 8 -4 5 -9 -3 -5 7 -23 23 -40 15 -16 26 -33 23 -35 -3 -3 3 -8 12 -12 9 -3 16 -11 16 -18 0 -6 14 -25 30 -43 51 -54 91 -187 91 -298 0 -62 -16 -177 -31 -230 -5 -16 -16 -55 -24 -86 -13 -46 -21 -59 -45 -69 -55 -22 -90 18 -76 88 10 46 15 91 16 117 0 11 5 23 12 27 16 10 16 260 0 280 -7 8 -10 17 -7 20 9 9 -31 80 -64 115 -17 17 -28 33 -26 36 3 2 -9 16 -26 31 -17 14 -29 26 -26 26 4 0 -9 24 -28 53 -19 28 -46 87 -60 129 -96 286 -26 583 176 746 50 41 205 124 238 128 8 1 47 9 85 17 39 9 81 18 95 20 52 9 207 6 270 -3z m1101 -832 c43 -15 53 -25 80 -83 19 -39 20 -51 10 -67 -7 -11 -10 -22 -7 -25 2 -3 -10 -21 -27 -40 -36 -40 -118 -83 -159 -83 -15 0 -30 -4 -33 -10 -9 -15 -68 0 -88 23 -13 14 -16 29 -11 50 3 16 7 35 8 42 4 27 67 142 88 162 21 19 69 40 94 42 6 1 26 -4 45 -11z m155 -342 c36 -13 67 -81 61 -133 -6 -56 -31 -91 -86 -122 -33 -18 -48 -21 -64 -14 -12 6 -47 21 -77 34 -30 13 -58 28 -62 34 -4 5 -8 7 -8 2 0 -4 -17 11 -37 34 -33 37 -51 89 -30 89 4 0 5 5 2 10 -4 6 -3 10 2 9 16 -4 43 13 36 24 -4 6 0 8 10 4 10 -4 17 -2 17 4 0 6 7 8 16 5 8 -3 12 -2 9 4 -3 5 3 9 12 8 10 0 42 6 72 14 50 14 71 13 127 -6z m-422 -29 c25 -20 28 -28 22 -58 -5 -30 -10 -35 -37 -37 -72 -6 -105 57 -51 97 34 25 31 26 66 -2z m44 -191 c22 -8 43 -12 46 -9 3 4 6 1 2 0 z"></path>
</g>
</svg>